<mxfile host="app.diagrams.net" modified="2024-01-08T01:27:23.401Z" agent="Mozilla/5.0 (Windows NT 10.0; Win64; x64) AppleWebKit/537.36 (KHTML, like Gecko) Chrome/120.0.0.0 Safari/537.36 Edg/120.0.0.0" etag="YHLJRD6zxaTK-pebjiOj" version="22.1.17" type="github">
  <diagram name="第 1 页" id="oMgj1BObMg4Nlj9AF_zV">
    <mxGraphModel dx="1573" dy="513" grid="1" gridSize="10" guides="1" tooltips="1" connect="1" arrows="1" fold="1" page="1" pageScale="1" pageWidth="827" pageHeight="1169" math="0" shadow="0">
      <root>
        <mxCell id="0" />
        <mxCell id="1" parent="0" />
        <mxCell id="G-rcUw8uSCSvZe56WRpI-6" style="edgeStyle=orthogonalEdgeStyle;rounded=0;orthogonalLoop=1;jettySize=auto;html=1;exitX=1;exitY=0.5;exitDx=0;exitDy=0;entryX=0;entryY=0.5;entryDx=0;entryDy=0;shape=flexArrow;" edge="1" parent="1" source="G-rcUw8uSCSvZe56WRpI-2" target="G-rcUw8uSCSvZe56WRpI-1">
          <mxGeometry relative="1" as="geometry" />
        </mxCell>
        <mxCell id="G-rcUw8uSCSvZe56WRpI-2" value="" style="rounded=0;whiteSpace=wrap;html=1;fillColor=none;dashed=1;" vertex="1" parent="1">
          <mxGeometry x="-10" y="70" width="760" height="440" as="geometry" />
        </mxCell>
        <mxCell id="kiaW02-JPxDlesy5p9iq-3" value="" style="shape=orEllipse;perimeter=ellipsePerimeter;whiteSpace=wrap;html=1;backgroundOutline=1;" parent="1" vertex="1">
          <mxGeometry x="480" y="240" width="40" height="40" as="geometry" />
        </mxCell>
        <mxCell id="kiaW02-JPxDlesy5p9iq-4" value="" style="shape=orEllipse;perimeter=ellipsePerimeter;whiteSpace=wrap;html=1;backgroundOutline=1;" parent="1" vertex="1">
          <mxGeometry x="480" y="400" width="40" height="40" as="geometry" />
        </mxCell>
        <mxCell id="kiaW02-JPxDlesy5p9iq-5" value="&lt;font style=&quot;font-size: 20px;&quot; face=&quot;Times New Roman&quot;&gt;(N/2) D&lt;/font&gt;" style="rounded=0;whiteSpace=wrap;html=1;" parent="1" vertex="1">
          <mxGeometry x="280" y="80" width="120" height="60" as="geometry" />
        </mxCell>
        <mxCell id="kiaW02-JPxDlesy5p9iq-9" value="&lt;font style=&quot;font-size: 20px;&quot; face=&quot;Times New Roman&quot;&gt;x(k+N/2)&lt;/font&gt;" style="rounded=0;whiteSpace=wrap;html=1;" parent="1" vertex="1">
          <mxGeometry x="120" y="440" width="90" height="30" as="geometry" />
        </mxCell>
        <mxCell id="kiaW02-JPxDlesy5p9iq-10" value="&lt;font style=&quot;font-size: 20px;&quot; face=&quot;Times New Roman&quot;&gt;x(k)&lt;/font&gt;" style="rounded=0;whiteSpace=wrap;html=1;" parent="1" vertex="1">
          <mxGeometry x="120" y="210" width="90" height="30" as="geometry" />
        </mxCell>
        <mxCell id="kiaW02-JPxDlesy5p9iq-11" value="" style="shape=waypoint;sketch=0;fillStyle=solid;size=6;pointerEvents=1;points=[];fillColor=none;resizable=0;rotatable=0;perimeter=centerPerimeter;snapToPoint=1;" parent="1" vertex="1">
          <mxGeometry x="155" y="250" width="20" height="20" as="geometry" />
        </mxCell>
        <mxCell id="kiaW02-JPxDlesy5p9iq-12" style="edgeStyle=orthogonalEdgeStyle;rounded=0;orthogonalLoop=1;jettySize=auto;html=1;exitX=1.383;exitY=0.867;exitDx=0;exitDy=0;entryX=0;entryY=0.5;entryDx=0;entryDy=0;exitPerimeter=0;" parent="1" source="kiaW02-JPxDlesy5p9iq-11" target="kiaW02-JPxDlesy5p9iq-3" edge="1">
          <mxGeometry relative="1" as="geometry" />
        </mxCell>
        <mxCell id="kiaW02-JPxDlesy5p9iq-15" value="" style="shape=waypoint;sketch=0;fillStyle=solid;size=6;pointerEvents=1;points=[];fillColor=none;resizable=0;rotatable=0;perimeter=centerPerimeter;snapToPoint=1;" parent="1" vertex="1">
          <mxGeometry x="155" y="410" width="20" height="20" as="geometry" />
        </mxCell>
        <mxCell id="kiaW02-JPxDlesy5p9iq-16" style="edgeStyle=orthogonalEdgeStyle;rounded=0;orthogonalLoop=1;jettySize=auto;html=1;exitX=1.317;exitY=0.5;exitDx=0;exitDy=0;entryX=0;entryY=0.5;entryDx=0;entryDy=0;exitPerimeter=0;" parent="1" source="kiaW02-JPxDlesy5p9iq-15" target="kiaW02-JPxDlesy5p9iq-4" edge="1">
          <mxGeometry relative="1" as="geometry" />
        </mxCell>
        <mxCell id="kiaW02-JPxDlesy5p9iq-18" style="rounded=0;orthogonalLoop=1;jettySize=auto;html=1;entryX=0;entryY=1;entryDx=0;entryDy=0;jumpStyle=arc;jumpSize=10;" parent="1" target="kiaW02-JPxDlesy5p9iq-3" edge="1">
          <mxGeometry relative="1" as="geometry">
            <mxPoint x="165" y="420" as="sourcePoint" />
          </mxGeometry>
        </mxCell>
        <mxCell id="kiaW02-JPxDlesy5p9iq-45" value="&lt;font style=&quot;font-size: 20px;&quot; face=&quot;Times New Roman&quot;&gt;-1&lt;/font&gt;" style="edgeLabel;html=1;align=center;verticalAlign=middle;resizable=0;points=[];" parent="kiaW02-JPxDlesy5p9iq-18" vertex="1" connectable="0">
          <mxGeometry x="0.2893" relative="1" as="geometry">
            <mxPoint as="offset" />
          </mxGeometry>
        </mxCell>
        <mxCell id="kiaW02-JPxDlesy5p9iq-19" style="rounded=0;orthogonalLoop=1;jettySize=auto;html=1;exitX=1.017;exitY=0.967;exitDx=0;exitDy=0;entryX=0;entryY=0;entryDx=0;entryDy=0;exitPerimeter=0;jumpStyle=arc;jumpSize=10;" parent="1" source="kiaW02-JPxDlesy5p9iq-11" target="kiaW02-JPxDlesy5p9iq-4" edge="1">
          <mxGeometry relative="1" as="geometry" />
        </mxCell>
        <mxCell id="kiaW02-JPxDlesy5p9iq-32" style="edgeStyle=orthogonalEdgeStyle;rounded=0;orthogonalLoop=1;jettySize=auto;html=1;exitX=1;exitY=0.5;exitDx=0;exitDy=-5;exitPerimeter=0;entryX=1;entryY=0.5;entryDx=0;entryDy=0;" parent="1" source="kiaW02-JPxDlesy5p9iq-20" target="kiaW02-JPxDlesy5p9iq-5" edge="1">
          <mxGeometry relative="1" as="geometry" />
        </mxCell>
        <mxCell id="kiaW02-JPxDlesy5p9iq-38" style="edgeStyle=orthogonalEdgeStyle;rounded=0;orthogonalLoop=1;jettySize=auto;html=1;exitX=0;exitY=0.63;exitDx=0;exitDy=3;exitPerimeter=0;entryX=0;entryY=0.63;entryDx=0;entryDy=3;entryPerimeter=0;startArrow=oval;startFill=1;spacing=0;" parent="1" target="kiaW02-JPxDlesy5p9iq-20" edge="1">
          <mxGeometry relative="1" as="geometry">
            <mxPoint x="420" y="302" as="sourcePoint" />
          </mxGeometry>
        </mxCell>
        <mxCell id="kiaW02-JPxDlesy5p9iq-20" value="" style="shadow=0;dashed=0;align=center;html=1;strokeWidth=1;shape=mxgraph.electrical.abstract.mux2;whiteSpace=wrap;fontSize=20;fontStyle=0;spacingTop=9;" parent="1" vertex="1">
          <mxGeometry x="560" y="236" width="40" height="100" as="geometry" />
        </mxCell>
        <mxCell id="kiaW02-JPxDlesy5p9iq-35" style="edgeStyle=orthogonalEdgeStyle;rounded=0;orthogonalLoop=1;jettySize=auto;html=1;exitX=0;exitY=0.63;exitDx=0;exitDy=3;exitPerimeter=0;entryX=0;entryY=0.63;entryDx=0;entryDy=3;entryPerimeter=0;jumpStyle=arc;jumpSize=10;startArrow=oval;startFill=1;" parent="1" target="kiaW02-JPxDlesy5p9iq-23" edge="1">
          <mxGeometry relative="1" as="geometry">
            <mxPoint x="430" y="380" as="sourcePoint" />
            <Array as="points">
              <mxPoint x="430" y="462" />
            </Array>
          </mxGeometry>
        </mxCell>
        <mxCell id="kiaW02-JPxDlesy5p9iq-40" style="edgeStyle=orthogonalEdgeStyle;rounded=0;orthogonalLoop=1;jettySize=auto;html=1;exitX=1;exitY=0.5;exitDx=0;exitDy=-5;exitPerimeter=0;entryX=0;entryY=0.5;entryDx=0;entryDy=0;startArrow=dash;startFill=0;" parent="1" source="kiaW02-JPxDlesy5p9iq-23" target="kiaW02-JPxDlesy5p9iq-39" edge="1">
          <mxGeometry relative="1" as="geometry" />
        </mxCell>
        <mxCell id="G-rcUw8uSCSvZe56WRpI-5" value="&lt;font style=&quot;font-size: 20px;&quot; face=&quot;Times New Roman&quot;&gt;11&lt;/font&gt;" style="edgeLabel;html=1;align=center;verticalAlign=bottom;resizable=0;points=[];labelPosition=center;verticalLabelPosition=top;" vertex="1" connectable="0" parent="kiaW02-JPxDlesy5p9iq-40">
          <mxGeometry x="0.0167" relative="1" as="geometry">
            <mxPoint as="offset" />
          </mxGeometry>
        </mxCell>
        <mxCell id="kiaW02-JPxDlesy5p9iq-23" value="" style="shadow=0;dashed=0;align=center;html=1;strokeWidth=1;shape=mxgraph.electrical.abstract.mux2;whiteSpace=wrap;fontSize=20;" parent="1" vertex="1">
          <mxGeometry x="560" y="396" width="40" height="100" as="geometry" />
        </mxCell>
        <mxCell id="kiaW02-JPxDlesy5p9iq-27" value="&lt;font style=&quot;font-size: 20px;&quot; face=&quot;Times New Roman&quot;&gt;input&lt;/font&gt;" style="rounded=0;whiteSpace=wrap;html=1;" parent="1" vertex="1">
          <mxGeometry x="10" y="405" width="90" height="30" as="geometry" />
        </mxCell>
        <mxCell id="kiaW02-JPxDlesy5p9iq-29" style="edgeStyle=orthogonalEdgeStyle;rounded=0;orthogonalLoop=1;jettySize=auto;html=1;exitX=1;exitY=0.5;exitDx=0;exitDy=0;entryX=0.25;entryY=0.533;entryDx=0;entryDy=0;entryPerimeter=0;startArrow=dash;startFill=0;" parent="1" source="kiaW02-JPxDlesy5p9iq-27" target="kiaW02-JPxDlesy5p9iq-15" edge="1">
          <mxGeometry relative="1" as="geometry" />
        </mxCell>
        <mxCell id="G-rcUw8uSCSvZe56WRpI-4" value="&lt;font style=&quot;font-size: 20px;&quot; face=&quot;Times New Roman&quot;&gt;10&lt;/font&gt;" style="edgeLabel;html=1;align=center;verticalAlign=bottom;resizable=0;points=[];labelPosition=center;verticalLabelPosition=top;" vertex="1" connectable="0" parent="kiaW02-JPxDlesy5p9iq-29">
          <mxGeometry x="-0.0359" relative="1" as="geometry">
            <mxPoint as="offset" />
          </mxGeometry>
        </mxCell>
        <mxCell id="kiaW02-JPxDlesy5p9iq-33" style="edgeStyle=orthogonalEdgeStyle;rounded=0;orthogonalLoop=1;jettySize=auto;html=1;exitX=0;exitY=0.5;exitDx=0;exitDy=0;entryX=0.25;entryY=0.767;entryDx=0;entryDy=0;entryPerimeter=0;" parent="1" source="kiaW02-JPxDlesy5p9iq-5" target="kiaW02-JPxDlesy5p9iq-11" edge="1">
          <mxGeometry relative="1" as="geometry">
            <Array as="points">
              <mxPoint x="90" y="110" />
              <mxPoint x="90" y="260" />
            </Array>
          </mxGeometry>
        </mxCell>
        <mxCell id="kiaW02-JPxDlesy5p9iq-34" style="edgeStyle=orthogonalEdgeStyle;rounded=0;orthogonalLoop=1;jettySize=auto;html=1;exitX=1;exitY=0.5;exitDx=0;exitDy=0;entryX=0;entryY=0.21;entryDx=0;entryDy=3;entryPerimeter=0;" parent="1" source="kiaW02-JPxDlesy5p9iq-4" target="kiaW02-JPxDlesy5p9iq-23" edge="1">
          <mxGeometry relative="1" as="geometry" />
        </mxCell>
        <mxCell id="kiaW02-JPxDlesy5p9iq-36" style="edgeStyle=orthogonalEdgeStyle;rounded=0;orthogonalLoop=1;jettySize=auto;html=1;exitX=1;exitY=0.5;exitDx=0;exitDy=0;entryX=0;entryY=0.21;entryDx=0;entryDy=3;entryPerimeter=0;" parent="1" source="kiaW02-JPxDlesy5p9iq-3" target="kiaW02-JPxDlesy5p9iq-20" edge="1">
          <mxGeometry relative="1" as="geometry" />
        </mxCell>
        <mxCell id="kiaW02-JPxDlesy5p9iq-39" value="&lt;font style=&quot;font-size: 20px;&quot; face=&quot;Times New Roman&quot;&gt;output&lt;/font&gt;" style="rounded=0;whiteSpace=wrap;html=1;" parent="1" vertex="1">
          <mxGeometry x="640" y="426" width="90" height="30" as="geometry" />
        </mxCell>
        <mxCell id="G-rcUw8uSCSvZe56WRpI-1" value="&lt;font style=&quot;font-size: 20px;&quot; face=&quot;Times New Roman&quot;&gt;bf_N&lt;/font&gt;" style="rounded=1;whiteSpace=wrap;html=1;" vertex="1" parent="1">
          <mxGeometry x="800" y="260" width="120" height="60" as="geometry" />
        </mxCell>
      </root>
    </mxGraphModel>
  </diagram>
</mxfile>
